0
SECTION
2
HEADER
9
$INSUNITS
70
1
0
ENDSEC
0
SECTION
2
TABLES
0
TABLE
2
LAYER
0
ENDTAB
0
ENDSEC
0
SECTION
2
ENTITIES
0
LINE
8
front_outsideCutPath
10
0
20
32
11
0
21
22.75
0
LINE
8
front_outsideCutPath
10
0
20
22.75
11
4
21
22.75
0
LINE
8
front_outsideCutPath
10
4
20
22.75
11
4
21
12.25
0
LINE
8
front_outsideCutPath
10
4
20
12.25
11
0
21
12.25
0
LINE
8
front_outsideCutPath
10
0
20
12.25
11
0
21
3
0
LINE
8
front_outsideCutPath
10
0
20
3
11
12.25
21
3
0
LINE
8
front_outsideCutPath
10
12.25
20
3
11
12.25
21
7
0
LINE
8
front_outsideCutPath
10
12.25
20
7
11
22.75
21
7
0
LINE
8
front_outsideCutPath
10
22.75
20
7
11
22.75
21
3
0
LINE
8
front_outsideCutPath
10
22.75
20
3
11
33.25
21
3
0
LINE
8
front_outsideCutPath
10
33.25
20
3
11
33.25
21
7
0
LINE
8
front_outsideCutPath
10
33.25
20
7
11
43.75
21
7
0
LINE
8
front_outsideCutPath
10
43.75
20
7
11
43.75
21
3
0
LINE
8
front_outsideCutPath
10
43.75
20
3
11
54.25
21
3
0
LINE
8
front_outsideCutPath
10
54.25
20
3
11
54.25
21
7
0
LINE
8
front_outsideCutPath
10
54.25
20
7
11
64.75
21
7
0
LINE
8
front_outsideCutPath
10
64.75
20
7
11
64.75
21
3
0
LINE
8
front_outsideCutPath
10
64.75
20
3
11
75.25
21
3
0
LINE
8
front_outsideCutPath
10
75.25
20
3
11
75.25
21
7
0
LINE
8
front_outsideCutPath
10
75.25
20
7
11
85.75
21
7
0
LINE
8
front_outsideCutPath
10
85.75
20
7
11
85.75
21
3
0
LINE
8
front_outsideCutPath
10
85.75
20
3
11
96.25
21
3
0
LINE
8
front_outsideCutPath
10
96.25
20
3
11
96.25
21
7
0
LINE
8
front_outsideCutPath
10
96.25
20
7
11
106.75
21
7
0
LINE
8
front_outsideCutPath
10
106.75
20
7
11
106.75
21
3
0
LINE
8
front_outsideCutPath
10
106.75
20
3
11
117.25
21
3
0
LINE
8
front_outsideCutPath
10
117.25
20
3
11
117.25
21
7
0
LINE
8
front_outsideCutPath
10
117.25
20
7
11
127.75
21
7
0
LINE
8
front_outsideCutPath
10
127.75
20
7
11
127.75
21
3
0
LINE
8
front_outsideCutPath
10
127.75
20
3
11
140
21
3
0
LINE
8
front_outsideCutPath
10
140
20
3
11
140
21
12.25
0
LINE
8
front_outsideCutPath
10
140
20
12.25
11
136
21
12.25
0
LINE
8
front_outsideCutPath
10
136
20
12.25
11
136
21
22.75
0
LINE
8
front_outsideCutPath
10
136
20
22.75
11
140
21
22.75
0
LINE
8
front_outsideCutPath
10
140
20
22.75
11
140
21
32
0
LINE
8
front_outsideCutPath
10
140
20
32
11
0
21
32
0
LINE
8
left_outsideCutPath
10
147
20
32
11
147
21
22.75
0
LINE
8
left_outsideCutPath
10
147
20
22.75
11
143
21
22.75
0
LINE
8
left_outsideCutPath
10
143
20
22.75
11
143
21
12.25
0
LINE
8
left_outsideCutPath
10
143
20
12.25
11
147
21
12.25
0
LINE
8
left_outsideCutPath
10
147
20
12.25
11
147
21
3
0
LINE
8
left_outsideCutPath
10
147
20
3
11
155.25
21
3
0
LINE
8
left_outsideCutPath
10
155.25
20
3
11
155.25
21
7
0
LINE
8
left_outsideCutPath
10
155.25
20
7
11
165.75
21
7
0
LINE
8
left_outsideCutPath
10
165.75
20
7
11
165.75
21
3
0
LINE
8
left_outsideCutPath
10
165.75
20
3
11
176.25
21
3
0
LINE
8
left_outsideCutPath
10
176.25
20
3
11
176.25
21
7
0
LINE
8
left_outsideCutPath
10
176.25
20
7
11
186.75
21
7
0
LINE
8
left_outsideCutPath
10
186.75
20
7
11
186.75
21
3
0
LINE
8
left_outsideCutPath
10
186.75
20
3
11
197.25
21
3
0
LINE
8
left_outsideCutPath
10
197.25
20
3
11
197.25
21
7
0
LINE
8
left_outsideCutPath
10
197.25
20
7
11
207.75
21
7
0
LINE
8
left_outsideCutPath
10
207.75
20
7
11
207.75
21
3
0
LINE
8
left_outsideCutPath
10
207.75
20
3
11
218.25
21
3
0
LINE
8
left_outsideCutPath
10
218.25
20
3
11
218.25
21
7
0
LINE
8
left_outsideCutPath
10
218.25
20
7
11
228.75
21
7
0
LINE
8
left_outsideCutPath
10
228.75
20
7
11
228.75
21
3
0
LINE
8
left_outsideCutPath
10
228.75
20
3
11
239.25
21
3
0
LINE
8
left_outsideCutPath
10
239.25
20
3
11
239.25
21
7
0
LINE
8
left_outsideCutPath
10
239.25
20
7
11
249.75
21
7
0
LINE
8
left_outsideCutPath
10
249.75
20
7
11
249.75
21
3
0
LINE
8
left_outsideCutPath
10
249.75
20
3
11
260.25
21
3
0
LINE
8
left_outsideCutPath
10
260.25
20
3
11
260.25
21
7
0
LINE
8
left_outsideCutPath
10
260.25
20
7
11
270.75
21
7
0
LINE
8
left_outsideCutPath
10
270.75
20
7
11
270.75
21
3
0
LINE
8
left_outsideCutPath
10
270.75
20
3
11
279
21
3
0
LINE
8
left_outsideCutPath
10
279
20
3
11
279
21
12.25
0
LINE
8
left_outsideCutPath
10
279
20
12.25
11
283
21
12.25
0
LINE
8
left_outsideCutPath
10
283
20
12.25
11
283
21
22.75
0
LINE
8
left_outsideCutPath
10
283
20
22.75
11
279
21
22.75
0
LINE
8
left_outsideCutPath
10
279
20
22.75
11
279
21
32
0
LINE
8
left_outsideCutPath
10
279
20
32
11
147
21
32
0
LINE
8
back_outsideCutPath
10
0
20
64
11
0
21
54.75
0
LINE
8
back_outsideCutPath
10
0
20
54.75
11
4
21
54.75
0
LINE
8
back_outsideCutPath
10
4
20
54.75
11
4
21
44.25
0
LINE
8
back_outsideCutPath
10
4
20
44.25
11
0
21
44.25
0
LINE
8
back_outsideCutPath
10
0
20
44.25
11
0
21
35
0
LINE
8
back_outsideCutPath
10
0
20
35
11
12.25
21
35
0
LINE
8
back_outsideCutPath
10
12.25
20
35
11
12.25
21
39
0
LINE
8
back_outsideCutPath
10
12.25
20
39
11
22.75
21
39
0
LINE
8
back_outsideCutPath
10
22.75
20
39
11
22.75
21
35
0
LINE
8
back_outsideCutPath
10
22.75
20
35
11
33.25
21
35
0
LINE
8
back_outsideCutPath
10
33.25
20
35
11
33.25
21
39
0
LINE
8
back_outsideCutPath
10
33.25
20
39
11
43.75
21
39
0
LINE
8
back_outsideCutPath
10
43.75
20
39
11
43.75
21
35
0
LINE
8
back_outsideCutPath
10
43.75
20
35
11
54.25
21
35
0
LINE
8
back_outsideCutPath
10
54.25
20
35
11
54.25
21
39
0
LINE
8
back_outsideCutPath
10
54.25
20
39
11
64.75
21
39
0
LINE
8
back_outsideCutPath
10
64.75
20
39
11
64.75
21
35
0
LINE
8
back_outsideCutPath
10
64.75
20
35
11
75.25
21
35
0
LINE
8
back_outsideCutPath
10
75.25
20
35
11
75.25
21
39
0
LINE
8
back_outsideCutPath
10
75.25
20
39
11
85.75
21
39
0
LINE
8
back_outsideCutPath
10
85.75
20
39
11
85.75
21
35
0
LINE
8
back_outsideCutPath
10
85.75
20
35
11
96.25
21
35
0
LINE
8
back_outsideCutPath
10
96.25
20
35
11
96.25
21
39
0
LINE
8
back_outsideCutPath
10
96.25
20
39
11
106.75
21
39
0
LINE
8
back_outsideCutPath
10
106.75
20
39
11
106.75
21
35
0
LINE
8
back_outsideCutPath
10
106.75
20
35
11
117.25
21
35
0
LINE
8
back_outsideCutPath
10
117.25
20
35
11
117.25
21
39
0
LINE
8
back_outsideCutPath
10
117.25
20
39
11
127.75
21
39
0
LINE
8
back_outsideCutPath
10
127.75
20
39
11
127.75
21
35
0
LINE
8
back_outsideCutPath
10
127.75
20
35
11
140
21
35
0
LINE
8
back_outsideCutPath
10
140
20
35
11
140
21
44.25
0
LINE
8
back_outsideCutPath
10
140
20
44.25
11
136
21
44.25
0
LINE
8
back_outsideCutPath
10
136
20
44.25
11
136
21
54.75
0
LINE
8
back_outsideCutPath
10
136
20
54.75
11
140
21
54.75
0
LINE
8
back_outsideCutPath
10
140
20
54.75
11
140
21
64
0
LINE
8
back_outsideCutPath
10
140
20
64
11
0
21
64
0
LINE
8
right_outsideCutPath
10
147
20
64
11
147
21
54.75
0
LINE
8
right_outsideCutPath
10
147
20
54.75
11
143
21
54.75
0
LINE
8
right_outsideCutPath
10
143
20
54.75
11
143
21
44.25
0
LINE
8
right_outsideCutPath
10
143
20
44.25
11
147
21
44.25
0
LINE
8
right_outsideCutPath
10
147
20
44.25
11
147
21
35
0
LINE
8
right_outsideCutPath
10
147
20
35
11
155.25
21
35
0
LINE
8
right_outsideCutPath
10
155.25
20
35
11
155.25
21
39
0
LINE
8
right_outsideCutPath
10
155.25
20
39
11
165.75
21
39
0
LINE
8
right_outsideCutPath
10
165.75
20
39
11
165.75
21
35
0
LINE
8
right_outsideCutPath
10
165.75
20
35
11
176.25
21
35
0
LINE
8
right_outsideCutPath
10
176.25
20
35
11
176.25
21
39
0
LINE
8
right_outsideCutPath
10
176.25
20
39
11
186.75
21
39
0
LINE
8
right_outsideCutPath
10
186.75
20
39
11
186.75
21
35
0
LINE
8
right_outsideCutPath
10
186.75
20
35
11
197.25
21
35
0
LINE
8
right_outsideCutPath
10
197.25
20
35
11
197.25
21
39
0
LINE
8
right_outsideCutPath
10
197.25
20
39
11
207.75
21
39
0
LINE
8
right_outsideCutPath
10
207.75
20
39
11
207.75
21
35
0
LINE
8
right_outsideCutPath
10
207.75
20
35
11
218.25
21
35
0
LINE
8
right_outsideCutPath
10
218.25
20
35
11
218.25
21
39
0
LINE
8
right_outsideCutPath
10
218.25
20
39
11
228.75
21
39
0
LINE
8
right_outsideCutPath
10
228.75
20
39
11
228.75
21
35
0
LINE
8
right_outsideCutPath
10
228.75
20
35
11
239.25
21
35
0
LINE
8
right_outsideCutPath
10
239.25
20
35
11
239.25
21
39
0
LINE
8
right_outsideCutPath
10
239.25
20
39
11
249.75
21
39
0
LINE
8
right_outsideCutPath
10
249.75
20
39
11
249.75
21
35
0
LINE
8
right_outsideCutPath
10
249.75
20
35
11
260.25
21
35
0
LINE
8
right_outsideCutPath
10
260.25
20
35
11
260.25
21
39
0
LINE
8
right_outsideCutPath
10
260.25
20
39
11
270.75
21
39
0
LINE
8
right_outsideCutPath
10
270.75
20
39
11
270.75
21
35
0
LINE
8
right_outsideCutPath
10
270.75
20
35
11
279
21
35
0
LINE
8
right_outsideCutPath
10
279
20
35
11
279
21
44.25
0
LINE
8
right_outsideCutPath
10
279
20
44.25
11
283
21
44.25
0
LINE
8
right_outsideCutPath
10
283
20
44.25
11
283
21
54.75
0
LINE
8
right_outsideCutPath
10
283
20
54.75
11
279
21
54.75
0
LINE
8
right_outsideCutPath
10
279
20
54.75
11
279
21
64
0
LINE
8
right_outsideCutPath
10
279
20
64
11
147
21
64
0
LINE
8
bottom_outsideCutPath
10
290
20
139
11
290
21
130.75
0
LINE
8
bottom_outsideCutPath
10
290
20
130.75
11
286
21
130.75
0
LINE
8
bottom_outsideCutPath
10
286
20
130.75
11
286
21
120.25
0
LINE
8
bottom_outsideCutPath
10
286
20
120.25
11
290
21
120.25
0
LINE
8
bottom_outsideCutPath
10
290
20
120.25
11
290
21
109.75
0
LINE
8
bottom_outsideCutPath
10
290
20
109.75
11
286
21
109.75
0
LINE
8
bottom_outsideCutPath
10
286
20
109.75
11
286
21
99.25
0
LINE
8
bottom_outsideCutPath
10
286
20
99.25
11
290
21
99.25
0
LINE
8
bottom_outsideCutPath
10
290
20
99.25
11
290
21
88.75
0
LINE
8
bottom_outsideCutPath
10
290
20
88.75
11
286
21
88.75
0
LINE
8
bottom_outsideCutPath
10
286
20
88.75
11
286
21
78.25
0
LINE
8
bottom_outsideCutPath
10
286
20
78.25
11
290
21
78.25
0
LINE
8
bottom_outsideCutPath
10
290
20
78.25
11
290
21
67.75
0
LINE
8
bottom_outsideCutPath
10
290
20
67.75
11
286
21
67.75
0
LINE
8
bottom_outsideCutPath
10
286
20
67.75
11
286
21
57.25
0
LINE
8
bottom_outsideCutPath
10
286
20
57.25
11
290
21
57.25
0
LINE
8
bottom_outsideCutPath
10
290
20
57.25
11
290
21
46.75
0
LINE
8
bottom_outsideCutPath
10
290
20
46.75
11
286
21
46.75
0
LINE
8
bottom_outsideCutPath
10
286
20
46.75
11
286
21
36.25
0
LINE
8
bottom_outsideCutPath
10
286
20
36.25
11
290
21
36.25
0
LINE
8
bottom_outsideCutPath
10
290
20
36.25
11
290
21
25.75
0
LINE
8
bottom_outsideCutPath
10
290
20
25.75
11
286
21
25.75
0
LINE
8
bottom_outsideCutPath
10
286
20
25.75
11
286
21
15.25
0
LINE
8
bottom_outsideCutPath
10
286
20
15.25
11
290
21
15.25
0
LINE
8
bottom_outsideCutPath
10
290
20
15.25
11
290
21
7
0
LINE
8
bottom_outsideCutPath
10
290
20
7
11
298.25
21
7
0
LINE
8
bottom_outsideCutPath
10
298.25
20
7
11
298.25
21
3
0
LINE
8
bottom_outsideCutPath
10
298.25
20
3
11
308.75
21
3
0
LINE
8
bottom_outsideCutPath
10
308.75
20
3
11
308.75
21
7
0
LINE
8
bottom_outsideCutPath
10
308.75
20
7
11
319.25
21
7
0
LINE
8
bottom_outsideCutPath
10
319.25
20
7
11
319.25
21
3
0
LINE
8
bottom_outsideCutPath
10
319.25
20
3
11
329.75
21
3
0
LINE
8
bottom_outsideCutPath
10
329.75
20
3
11
329.75
21
7
0
LINE
8
bottom_outsideCutPath
10
329.75
20
7
11
340.25
21
7
0
LINE
8
bottom_outsideCutPath
10
340.25
20
7
11
340.25
21
3
0
LINE
8
bottom_outsideCutPath
10
340.25
20
3
11
350.75
21
3
0
LINE
8
bottom_outsideCutPath
10
350.75
20
3
11
350.75
21
7
0
LINE
8
bottom_outsideCutPath
10
350.75
20
7
11
361.25
21
7
0
LINE
8
bottom_outsideCutPath
10
361.25
20
7
11
361.25
21
3
0
LINE
8
bottom_outsideCutPath
10
361.25
20
3
11
371.75
21
3
0
LINE
8
bottom_outsideCutPath
10
371.75
20
3
11
371.75
21
7
0
LINE
8
bottom_outsideCutPath
10
371.75
20
7
11
382.25
21
7
0
LINE
8
bottom_outsideCutPath
10
382.25
20
7
11
382.25
21
3
0
LINE
8
bottom_outsideCutPath
10
382.25
20
3
11
392.75
21
3
0
LINE
8
bottom_outsideCutPath
10
392.75
20
3
11
392.75
21
7
0
LINE
8
bottom_outsideCutPath
10
392.75
20
7
11
403.25
21
7
0
LINE
8
bottom_outsideCutPath
10
403.25
20
7
11
403.25
21
3
0
LINE
8
bottom_outsideCutPath
10
403.25
20
3
11
413.75
21
3
0
LINE
8
bottom_outsideCutPath
10
413.75
20
3
11
413.75
21
7
0
LINE
8
bottom_outsideCutPath
10
413.75
20
7
11
422
21
7
0
LINE
8
bottom_outsideCutPath
10
422
20
7
11
422
21
15.25
0
LINE
8
bottom_outsideCutPath
10
422
20
15.25
11
426
21
15.25
0
LINE
8
bottom_outsideCutPath
10
426
20
15.25
11
426
21
25.75
0
LINE
8
bottom_outsideCutPath
10
426
20
25.75
11
422
21
25.75
0
LINE
8
bottom_outsideCutPath
10
422
20
25.75
11
422
21
36.25
0
LINE
8
bottom_outsideCutPath
10
422
20
36.25
11
426
21
36.25
0
LINE
8
bottom_outsideCutPath
10
426
20
36.25
11
426
21
46.75
0
LINE
8
bottom_outsideCutPath
10
426
20
46.75
11
422
21
46.75
0
LINE
8
bottom_outsideCutPath
10
422
20
46.75
11
422
21
57.25
0
LINE
8
bottom_outsideCutPath
10
422
20
57.25
11
426
21
57.25
0
LINE
8
bottom_outsideCutPath
10
426
20
57.25
11
426
21
67.75
0
LINE
8
bottom_outsideCutPath
10
426
20
67.75
11
422
21
67.75
0
LINE
8
bottom_outsideCutPath
10
422
20
67.75
11
422
21
78.25
0
LINE
8
bottom_outsideCutPath
10
422
20
78.25
11
426
21
78.25
0
LINE
8
bottom_outsideCutPath
10
426
20
78.25
11
426
21
88.75
0
LINE
8
bottom_outsideCutPath
10
426
20
88.75
11
422
21
88.75
0
LINE
8
bottom_outsideCutPath
10
422
20
88.75
11
422
21
99.25
0
LINE
8
bottom_outsideCutPath
10
422
20
99.25
11
426
21
99.25
0
LINE
8
bottom_outsideCutPath
10
426
20
99.25
11
426
21
109.75
0
LINE
8
bottom_outsideCutPath
10
426
20
109.75
11
422
21
109.75
0
LINE
8
bottom_outsideCutPath
10
422
20
109.75
11
422
21
120.25
0
LINE
8
bottom_outsideCutPath
10
422
20
120.25
11
426
21
120.25
0
LINE
8
bottom_outsideCutPath
10
426
20
120.25
11
426
21
130.75
0
LINE
8
bottom_outsideCutPath
10
426
20
130.75
11
422
21
130.75
0
LINE
8
bottom_outsideCutPath
10
422
20
130.75
11
422
21
139
0
LINE
8
bottom_outsideCutPath
10
422
20
139
11
413.75
21
139
0
LINE
8
bottom_outsideCutPath
10
413.75
20
139
11
413.75
21
143
0
LINE
8
bottom_outsideCutPath
10
413.75
20
143
11
403.25
21
143
0
LINE
8
bottom_outsideCutPath
10
403.25
20
143
11
403.25
21
139
0
LINE
8
bottom_outsideCutPath
10
403.25
20
139
11
392.75
21
139
0
LINE
8
bottom_outsideCutPath
10
392.75
20
139
11
392.75
21
143
0
LINE
8
bottom_outsideCutPath
10
392.75
20
143
11
382.25
21
143
0
LINE
8
bottom_outsideCutPath
10
382.25
20
143
11
382.25
21
139
0
LINE
8
bottom_outsideCutPath
10
382.25
20
139
11
371.75
21
139
0
LINE
8
bottom_outsideCutPath
10
371.75
20
139
11
371.75
21
143
0
LINE
8
bottom_outsideCutPath
10
371.75
20
143
11
361.25
21
143
0
LINE
8
bottom_outsideCutPath
10
361.25
20
143
11
361.25
21
139
0
LINE
8
bottom_outsideCutPath
10
361.25
20
139
11
350.75
21
139
0
LINE
8
bottom_outsideCutPath
10
350.75
20
139
11
350.75
21
143
0
LINE
8
bottom_outsideCutPath
10
350.75
20
143
11
340.25
21
143
0
LINE
8
bottom_outsideCutPath
10
340.25
20
143
11
340.25
21
139
0
LINE
8
bottom_outsideCutPath
10
340.25
20
139
11
329.75
21
139
0
LINE
8
bottom_outsideCutPath
10
329.75
20
139
11
329.75
21
143
0
LINE
8
bottom_outsideCutPath
10
329.75
20
143
11
319.25
21
143
0
LINE
8
bottom_outsideCutPath
10
319.25
20
143
11
319.25
21
139
0
LINE
8
bottom_outsideCutPath
10
319.25
20
139
11
308.75
21
139
0
LINE
8
bottom_outsideCutPath
10
308.75
20
139
11
308.75
21
143
0
LINE
8
bottom_outsideCutPath
10
308.75
20
143
11
298.25
21
143
0
LINE
8
bottom_outsideCutPath
10
298.25
20
143
11
298.25
21
139
0
LINE
8
bottom_outsideCutPath
10
298.25
20
139
11
290
21
139
0
ENDSEC
0
EOF