0
SECTION
2
HEADER
9
$INSUNITS
70
1
0
ENDSEC
0
SECTION
2
TABLES
0
TABLE
2
LAYER
0
ENDTAB
0
ENDSEC
0
SECTION
2
ENTITIES
0
LINE
8
front_outsideCutPath
10
0
20
109
11
0
21
92.75
0
LINE
8
front_outsideCutPath
10
0
20
92.75
11
3
21
92.75
0
LINE
8
front_outsideCutPath
10
3
20
92.75
11
3
21
82.25
0
LINE
8
front_outsideCutPath
10
3
20
82.25
11
0
21
82.25
0
LINE
8
front_outsideCutPath
10
0
20
82.25
11
0
21
71.75
0
LINE
8
front_outsideCutPath
10
0
20
71.75
11
3
21
71.75
0
LINE
8
front_outsideCutPath
10
3
20
71.75
11
3
21
61.25
0
LINE
8
front_outsideCutPath
10
3
20
61.25
11
0
21
61.25
0
LINE
8
front_outsideCutPath
10
0
20
61.25
11
0
21
50.75
0
LINE
8
front_outsideCutPath
10
0
20
50.75
11
3
21
50.75
0
LINE
8
front_outsideCutPath
10
3
20
50.75
11
3
21
40.25
0
LINE
8
front_outsideCutPath
10
3
20
40.25
11
0
21
40.25
0
LINE
8
front_outsideCutPath
10
0
20
40.25
11
0
21
29.75
0
LINE
8
front_outsideCutPath
10
0
20
29.75
11
3
21
29.75
0
LINE
8
front_outsideCutPath
10
3
20
29.75
11
3
21
19.25
0
LINE
8
front_outsideCutPath
10
3
20
19.25
11
0
21
19.25
0
LINE
8
front_outsideCutPath
10
0
20
19.25
11
0
21
8.75
0
LINE
8
front_outsideCutPath
10
0
20
8.75
11
0
21
3
0
LINE
8
front_outsideCutPath
10
0
20
3
11
15.75
21
3
0
LINE
8
front_outsideCutPath
10
15.75
20
3
11
15.75
21
6
0
LINE
8
front_outsideCutPath
10
15.75
20
6
11
26.25
21
6
0
LINE
8
front_outsideCutPath
10
26.25
20
6
11
26.25
21
3
0
LINE
8
front_outsideCutPath
10
26.25
20
3
11
36.75
21
3
0
LINE
8
front_outsideCutPath
10
36.75
20
3
11
36.75
21
6
0
LINE
8
front_outsideCutPath
10
36.75
20
6
11
47.25
21
6
0
LINE
8
front_outsideCutPath
10
47.25
20
6
11
47.25
21
3
0
LINE
8
front_outsideCutPath
10
47.25
20
3
11
57.75
21
3
0
LINE
8
front_outsideCutPath
10
57.75
20
3
11
57.75
21
6
0
LINE
8
front_outsideCutPath
10
57.75
20
6
11
68.25
21
6
0
LINE
8
front_outsideCutPath
10
68.25
20
6
11
68.25
21
3
0
LINE
8
front_outsideCutPath
10
68.25
20
3
11
78.75
21
3
0
LINE
8
front_outsideCutPath
10
78.75
20
3
11
78.75
21
6
0
LINE
8
front_outsideCutPath
10
78.75
20
6
11
89.25
21
6
0
LINE
8
front_outsideCutPath
10
89.25
20
6
11
89.25
21
3
0
LINE
8
front_outsideCutPath
10
89.25
20
3
11
99.75
21
3
0
LINE
8
front_outsideCutPath
10
99.75
20
3
11
99.75
21
6
0
LINE
8
front_outsideCutPath
10
99.75
20
6
11
110.25
21
6
0
LINE
8
front_outsideCutPath
10
110.25
20
6
11
110.25
21
3
0
LINE
8
front_outsideCutPath
10
110.25
20
3
11
120.75
21
3
0
LINE
8
front_outsideCutPath
10
120.75
20
3
11
126
21
3
0
LINE
8
front_outsideCutPath
10
126
20
3
11
126
21
19.25
0
LINE
8
front_outsideCutPath
10
126
20
19.25
11
123
21
19.25
0
LINE
8
front_outsideCutPath
10
123
20
19.25
11
123
21
29.75
0
LINE
8
front_outsideCutPath
10
123
20
29.75
11
126
21
29.75
0
LINE
8
front_outsideCutPath
10
126
20
29.75
11
126
21
40.25
0
LINE
8
front_outsideCutPath
10
126
20
40.25
11
123
21
40.25
0
LINE
8
front_outsideCutPath
10
123
20
40.25
11
123
21
50.75
0
LINE
8
front_outsideCutPath
10
123
20
50.75
11
126
21
50.75
0
LINE
8
front_outsideCutPath
10
126
20
50.75
11
126
21
61.25
0
LINE
8
front_outsideCutPath
10
126
20
61.25
11
123
21
61.25
0
LINE
8
front_outsideCutPath
10
123
20
61.25
11
123
21
71.75
0
LINE
8
front_outsideCutPath
10
123
20
71.75
11
126
21
71.75
0
LINE
8
front_outsideCutPath
10
126
20
71.75
11
126
21
82.25
0
LINE
8
front_outsideCutPath
10
126
20
82.25
11
123
21
82.25
0
LINE
8
front_outsideCutPath
10
123
20
82.25
11
123
21
92.75
0
LINE
8
front_outsideCutPath
10
123
20
92.75
11
126
21
92.75
0
LINE
8
front_outsideCutPath
10
126
20
92.75
11
126
21
103.25
0
LINE
8
front_outsideCutPath
10
126
20
103.25
11
126
21
109
0
LINE
8
front_outsideCutPath
10
126
20
109
11
110.25
21
109
0
LINE
8
front_outsideCutPath
10
110.25
20
109
11
110.25
21
106
0
LINE
8
front_outsideCutPath
10
110.25
20
106
11
99.75
21
106
0
LINE
8
front_outsideCutPath
10
99.75
20
106
11
99.75
21
109
0
LINE
8
front_outsideCutPath
10
99.75
20
109
11
89.25
21
109
0
LINE
8
front_outsideCutPath
10
89.25
20
109
11
89.25
21
106
0
LINE
8
front_outsideCutPath
10
89.25
20
106
11
78.75
21
106
0
LINE
8
front_outsideCutPath
10
78.75
20
106
11
78.75
21
109
0
LINE
8
front_outsideCutPath
10
78.75
20
109
11
68.25
21
109
0
LINE
8
front_outsideCutPath
10
68.25
20
109
11
68.25
21
106
0
LINE
8
front_outsideCutPath
10
68.25
20
106
11
57.75
21
106
0
LINE
8
front_outsideCutPath
10
57.75
20
106
11
57.75
21
109
0
LINE
8
front_outsideCutPath
10
57.75
20
109
11
47.25
21
109
0
LINE
8
front_outsideCutPath
10
47.25
20
109
11
47.25
21
106
0
LINE
8
front_outsideCutPath
10
47.25
20
106
11
36.75
21
106
0
LINE
8
front_outsideCutPath
10
36.75
20
106
11
36.75
21
109
0
LINE
8
front_outsideCutPath
10
36.75
20
109
11
26.25
21
109
0
LINE
8
front_outsideCutPath
10
26.25
20
109
11
26.25
21
106
0
LINE
8
front_outsideCutPath
10
26.25
20
106
11
15.75
21
106
0
LINE
8
front_outsideCutPath
10
15.75
20
106
11
15.75
21
109
0
LINE
8
front_outsideCutPath
10
15.75
20
109
11
5.25
21
109
0
LINE
8
front_outsideCutPath
10
5.25
20
109
11
0
21
109
0
LINE
8
left_outsideCutPath
10
132
20
109
11
132
21
92.75
0
LINE
8
left_outsideCutPath
10
132
20
92.75
11
129
21
92.75
0
LINE
8
left_outsideCutPath
10
129
20
92.75
11
129
21
82.25
0
LINE
8
left_outsideCutPath
10
129
20
82.25
11
132
21
82.25
0
LINE
8
left_outsideCutPath
10
132
20
82.25
11
132
21
71.75
0
LINE
8
left_outsideCutPath
10
132
20
71.75
11
129
21
71.75
0
LINE
8
left_outsideCutPath
10
129
20
71.75
11
129
21
61.25
0
LINE
8
left_outsideCutPath
10
129
20
61.25
11
132
21
61.25
0
LINE
8
left_outsideCutPath
10
132
20
61.25
11
132
21
50.75
0
LINE
8
left_outsideCutPath
10
132
20
50.75
11
129
21
50.75
0
LINE
8
left_outsideCutPath
10
129
20
50.75
11
129
21
40.25
0
LINE
8
left_outsideCutPath
10
129
20
40.25
11
132
21
40.25
0
LINE
8
left_outsideCutPath
10
132
20
40.25
11
132
21
29.75
0
LINE
8
left_outsideCutPath
10
132
20
29.75
11
129
21
29.75
0
LINE
8
left_outsideCutPath
10
129
20
29.75
11
129
21
19.25
0
LINE
8
left_outsideCutPath
10
129
20
19.25
11
132
21
19.25
0
LINE
8
left_outsideCutPath
10
132
20
19.25
11
132
21
8.75
0
LINE
8
left_outsideCutPath
10
132
20
8.75
11
132
21
3
0
LINE
8
left_outsideCutPath
10
132
20
3
11
138.75
21
3
0
LINE
8
left_outsideCutPath
10
138.75
20
3
11
138.75
21
6
0
LINE
8
left_outsideCutPath
10
138.75
20
6
11
149.25
21
6
0
LINE
8
left_outsideCutPath
10
149.25
20
6
11
149.25
21
3
0
LINE
8
left_outsideCutPath
10
149.25
20
3
11
159.75
21
3
0
LINE
8
left_outsideCutPath
10
159.75
20
3
11
159.75
21
6
0
LINE
8
left_outsideCutPath
10
159.75
20
6
11
170.25
21
6
0
LINE
8
left_outsideCutPath
10
170.25
20
6
11
170.25
21
3
0
LINE
8
left_outsideCutPath
10
170.25
20
3
11
180.75
21
3
0
LINE
8
left_outsideCutPath
10
180.75
20
3
11
180.75
21
6
0
LINE
8
left_outsideCutPath
10
180.75
20
6
11
191.25
21
6
0
LINE
8
left_outsideCutPath
10
191.25
20
6
11
191.25
21
3
0
LINE
8
left_outsideCutPath
10
191.25
20
3
11
201.75
21
3
0
LINE
8
left_outsideCutPath
10
201.75
20
3
11
201.75
21
6
0
LINE
8
left_outsideCutPath
10
201.75
20
6
11
212.25
21
6
0
LINE
8
left_outsideCutPath
10
212.25
20
6
11
212.25
21
3
0
LINE
8
left_outsideCutPath
10
212.25
20
3
11
222.75
21
3
0
LINE
8
left_outsideCutPath
10
222.75
20
3
11
222.75
21
6
0
LINE
8
left_outsideCutPath
10
222.75
20
6
11
233.25
21
6
0
LINE
8
left_outsideCutPath
10
233.25
20
6
11
233.25
21
3
0
LINE
8
left_outsideCutPath
10
233.25
20
3
11
243.75
21
3
0
LINE
8
left_outsideCutPath
10
243.75
20
3
11
243.75
21
6
0
LINE
8
left_outsideCutPath
10
243.75
20
6
11
254.25
21
6
0
LINE
8
left_outsideCutPath
10
254.25
20
6
11
254.25
21
3
0
LINE
8
left_outsideCutPath
10
254.25
20
3
11
264.75
21
3
0
LINE
8
left_outsideCutPath
10
264.75
20
3
11
264.75
21
6
0
LINE
8
left_outsideCutPath
10
264.75
20
6
11
275.25
21
6
0
LINE
8
left_outsideCutPath
10
275.25
20
6
11
275.25
21
3
0
LINE
8
left_outsideCutPath
10
275.25
20
3
11
282
21
3
0
LINE
8
left_outsideCutPath
10
282
20
3
11
282
21
19.25
0
LINE
8
left_outsideCutPath
10
282
20
19.25
11
285
21
19.25
0
LINE
8
left_outsideCutPath
10
285
20
19.25
11
285
21
29.75
0
LINE
8
left_outsideCutPath
10
285
20
29.75
11
282
21
29.75
0
LINE
8
left_outsideCutPath
10
282
20
29.75
11
282
21
40.25
0
LINE
8
left_outsideCutPath
10
282
20
40.25
11
285
21
40.25
0
LINE
8
left_outsideCutPath
10
285
20
40.25
11
285
21
50.75
0
LINE
8
left_outsideCutPath
10
285
20
50.75
11
282
21
50.75
0
LINE
8
left_outsideCutPath
10
282
20
50.75
11
282
21
61.25
0
LINE
8
left_outsideCutPath
10
282
20
61.25
11
285
21
61.25
0
LINE
8
left_outsideCutPath
10
285
20
61.25
11
285
21
71.75
0
LINE
8
left_outsideCutPath
10
285
20
71.75
11
282
21
71.75
0
LINE
8
left_outsideCutPath
10
282
20
71.75
11
282
21
82.25
0
LINE
8
left_outsideCutPath
10
282
20
82.25
11
285
21
82.25
0
LINE
8
left_outsideCutPath
10
285
20
82.25
11
285
21
92.75
0
LINE
8
left_outsideCutPath
10
285
20
92.75
11
282
21
92.75
0
LINE
8
left_outsideCutPath
10
282
20
92.75
11
282
21
103.25
0
LINE
8
left_outsideCutPath
10
282
20
103.25
11
282
21
109
0
LINE
8
left_outsideCutPath
10
282
20
109
11
275.25
21
109
0
LINE
8
left_outsideCutPath
10
275.25
20
109
11
275.25
21
106
0
LINE
8
left_outsideCutPath
10
275.25
20
106
11
264.75
21
106
0
LINE
8
left_outsideCutPath
10
264.75
20
106
11
264.75
21
109
0
LINE
8
left_outsideCutPath
10
264.75
20
109
11
254.25
21
109
0
LINE
8
left_outsideCutPath
10
254.25
20
109
11
254.25
21
106
0
LINE
8
left_outsideCutPath
10
254.25
20
106
11
243.75
21
106
0
LINE
8
left_outsideCutPath
10
243.75
20
106
11
243.75
21
109
0
LINE
8
left_outsideCutPath
10
243.75
20
109
11
233.25
21
109
0
LINE
8
left_outsideCutPath
10
233.25
20
109
11
233.25
21
106
0
LINE
8
left_outsideCutPath
10
233.25
20
106
11
222.75
21
106
0
LINE
8
left_outsideCutPath
10
222.75
20
106
11
222.75
21
109
0
LINE
8
left_outsideCutPath
10
222.75
20
109
11
212.25
21
109
0
LINE
8
left_outsideCutPath
10
212.25
20
109
11
212.25
21
106
0
LINE
8
left_outsideCutPath
10
212.25
20
106
11
201.75
21
106
0
LINE
8
left_outsideCutPath
10
201.75
20
106
11
201.75
21
109
0
LINE
8
left_outsideCutPath
10
201.75
20
109
11
191.25
21
109
0
LINE
8
left_outsideCutPath
10
191.25
20
109
11
191.25
21
106
0
LINE
8
left_outsideCutPath
10
191.25
20
106
11
180.75
21
106
0
LINE
8
left_outsideCutPath
10
180.75
20
106
11
180.75
21
109
0
LINE
8
left_outsideCutPath
10
180.75
20
109
11
170.25
21
109
0
LINE
8
left_outsideCutPath
10
170.25
20
109
11
170.25
21
106
0
LINE
8
left_outsideCutPath
10
170.25
20
106
11
159.75
21
106
0
LINE
8
left_outsideCutPath
10
159.75
20
106
11
159.75
21
109
0
LINE
8
left_outsideCutPath
10
159.75
20
109
11
149.25
21
109
0
LINE
8
left_outsideCutPath
10
149.25
20
109
11
149.25
21
106
0
LINE
8
left_outsideCutPath
10
149.25
20
106
11
138.75
21
106
0
LINE
8
left_outsideCutPath
10
138.75
20
106
11
138.75
21
109
0
LINE
8
left_outsideCutPath
10
138.75
20
109
11
132
21
109
0
LINE
8
top_outsideCutPath
10
291
20
156
11
291
21
149.25
0
LINE
8
top_outsideCutPath
10
291
20
149.25
11
288
21
149.25
0
LINE
8
top_outsideCutPath
10
288
20
149.25
11
288
21
138.75
0
LINE
8
top_outsideCutPath
10
288
20
138.75
11
291
21
138.75
0
LINE
8
top_outsideCutPath
10
291
20
138.75
11
291
21
128.25
0
LINE
8
top_outsideCutPath
10
291
20
128.25
11
288
21
128.25
0
LINE
8
top_outsideCutPath
10
288
20
128.25
11
288
21
117.75
0
LINE
8
top_outsideCutPath
10
288
20
117.75
11
291
21
117.75
0
LINE
8
top_outsideCutPath
10
291
20
117.75
11
291
21
107.25
0
LINE
8
top_outsideCutPath
10
291
20
107.25
11
288
21
107.25
0
LINE
8
top_outsideCutPath
10
288
20
107.25
11
288
21
96.75
0
LINE
8
top_outsideCutPath
10
288
20
96.75
11
291
21
96.75
0
LINE
8
top_outsideCutPath
10
291
20
96.75
11
291
21
86.25
0
LINE
8
top_outsideCutPath
10
291
20
86.25
11
288
21
86.25
0
LINE
8
top_outsideCutPath
10
288
20
86.25
11
288
21
75.75
0
LINE
8
top_outsideCutPath
10
288
20
75.75
11
291
21
75.75
0
LINE
8
top_outsideCutPath
10
291
20
75.75
11
291
21
65.25
0
LINE
8
top_outsideCutPath
10
291
20
65.25
11
288
21
65.25
0
LINE
8
top_outsideCutPath
10
288
20
65.25
11
288
21
54.75
0
LINE
8
top_outsideCutPath
10
288
20
54.75
11
291
21
54.75
0
LINE
8
top_outsideCutPath
10
291
20
54.75
11
291
21
44.25
0
LINE
8
top_outsideCutPath
10
291
20
44.25
11
288
21
44.25
0
LINE
8
top_outsideCutPath
10
288
20
44.25
11
288
21
33.75
0
LINE
8
top_outsideCutPath
10
288
20
33.75
11
291
21
33.75
0
LINE
8
top_outsideCutPath
10
291
20
33.75
11
291
21
23.25
0
LINE
8
top_outsideCutPath
10
291
20
23.25
11
288
21
23.25
0
LINE
8
top_outsideCutPath
10
288
20
23.25
11
288
21
12.75
0
LINE
8
top_outsideCutPath
10
288
20
12.75
11
291
21
12.75
0
LINE
8
top_outsideCutPath
10
291
20
12.75
11
291
21
6
0
LINE
8
top_outsideCutPath
10
291
20
6
11
303.75
21
6
0
LINE
8
top_outsideCutPath
10
303.75
20
6
11
303.75
21
3
0
LINE
8
top_outsideCutPath
10
303.75
20
3
11
314.25
21
3
0
LINE
8
top_outsideCutPath
10
314.25
20
3
11
314.25
21
6
0
LINE
8
top_outsideCutPath
10
314.25
20
6
11
324.75
21
6
0
LINE
8
top_outsideCutPath
10
324.75
20
6
11
324.75
21
3
0
LINE
8
top_outsideCutPath
10
324.75
20
3
11
335.25
21
3
0
LINE
8
top_outsideCutPath
10
335.25
20
3
11
335.25
21
6
0
LINE
8
top_outsideCutPath
10
335.25
20
6
11
345.75
21
6
0
LINE
8
top_outsideCutPath
10
345.75
20
6
11
345.75
21
3
0
LINE
8
top_outsideCutPath
10
345.75
20
3
11
356.25
21
3
0
LINE
8
top_outsideCutPath
10
356.25
20
3
11
356.25
21
6
0
LINE
8
top_outsideCutPath
10
356.25
20
6
11
366.75
21
6
0
LINE
8
top_outsideCutPath
10
366.75
20
6
11
366.75
21
3
0
LINE
8
top_outsideCutPath
10
366.75
20
3
11
377.25
21
3
0
LINE
8
top_outsideCutPath
10
377.25
20
3
11
377.25
21
6
0
LINE
8
top_outsideCutPath
10
377.25
20
6
11
387.75
21
6
0
LINE
8
top_outsideCutPath
10
387.75
20
6
11
387.75
21
3
0
LINE
8
top_outsideCutPath
10
387.75
20
3
11
398.25
21
3
0
LINE
8
top_outsideCutPath
10
398.25
20
3
11
398.25
21
6
0
LINE
8
top_outsideCutPath
10
398.25
20
6
11
408.75
21
6
0
LINE
8
top_outsideCutPath
10
408.75
20
6
11
411
21
6
0
LINE
8
top_outsideCutPath
10
411
20
6
11
411
21
12.75
0
LINE
8
top_outsideCutPath
10
411
20
12.75
11
414
21
12.75
0
LINE
8
top_outsideCutPath
10
414
20
12.75
11
414
21
23.25
0
LINE
8
top_outsideCutPath
10
414
20
23.25
11
411
21
23.25
0
LINE
8
top_outsideCutPath
10
411
20
23.25
11
411
21
33.75
0
LINE
8
top_outsideCutPath
10
411
20
33.75
11
414
21
33.75
0
LINE
8
top_outsideCutPath
10
414
20
33.75
11
414
21
44.25
0
LINE
8
top_outsideCutPath
10
414
20
44.25
11
411
21
44.25
0
LINE
8
top_outsideCutPath
10
411
20
44.25
11
411
21
54.75
0
LINE
8
top_outsideCutPath
10
411
20
54.75
11
414
21
54.75
0
LINE
8
top_outsideCutPath
10
414
20
54.75
11
414
21
65.25
0
LINE
8
top_outsideCutPath
10
414
20
65.25
11
411
21
65.25
0
LINE
8
top_outsideCutPath
10
411
20
65.25
11
411
21
75.75
0
LINE
8
top_outsideCutPath
10
411
20
75.75
11
414
21
75.75
0
LINE
8
top_outsideCutPath
10
414
20
75.75
11
414
21
86.25
0
LINE
8
top_outsideCutPath
10
414
20
86.25
11
411
21
86.25
0
LINE
8
top_outsideCutPath
10
411
20
86.25
11
411
21
96.75
0
LINE
8
top_outsideCutPath
10
411
20
96.75
11
414
21
96.75
0
LINE
8
top_outsideCutPath
10
414
20
96.75
11
414
21
107.25
0
LINE
8
top_outsideCutPath
10
414
20
107.25
11
411
21
107.25
0
LINE
8
top_outsideCutPath
10
411
20
107.25
11
411
21
117.75
0
LINE
8
top_outsideCutPath
10
411
20
117.75
11
414
21
117.75
0
LINE
8
top_outsideCutPath
10
414
20
117.75
11
414
21
128.25
0
LINE
8
top_outsideCutPath
10
414
20
128.25
11
411
21
128.25
0
LINE
8
top_outsideCutPath
10
411
20
128.25
11
411
21
138.75
0
LINE
8
top_outsideCutPath
10
411
20
138.75
11
414
21
138.75
0
LINE
8
top_outsideCutPath
10
414
20
138.75
11
414
21
149.25
0
LINE
8
top_outsideCutPath
10
414
20
149.25
11
411
21
149.25
0
LINE
8
top_outsideCutPath
10
411
20
149.25
11
411
21
156
0
LINE
8
top_outsideCutPath
10
411
20
156
11
398.25
21
156
0
LINE
8
top_outsideCutPath
10
398.25
20
156
11
398.25
21
159
0
LINE
8
top_outsideCutPath
10
398.25
20
159
11
387.75
21
159
0
LINE
8
top_outsideCutPath
10
387.75
20
159
11
387.75
21
156
0
LINE
8
top_outsideCutPath
10
387.75
20
156
11
377.25
21
156
0
LINE
8
top_outsideCutPath
10
377.25
20
156
11
377.25
21
159
0
LINE
8
top_outsideCutPath
10
377.25
20
159
11
366.75
21
159
0
LINE
8
top_outsideCutPath
10
366.75
20
159
11
366.75
21
156
0
LINE
8
top_outsideCutPath
10
366.75
20
156
11
356.25
21
156
0
LINE
8
top_outsideCutPath
10
356.25
20
156
11
356.25
21
159
0
LINE
8
top_outsideCutPath
10
356.25
20
159
11
345.75
21
159
0
LINE
8
top_outsideCutPath
10
345.75
20
159
11
345.75
21
156
0
LINE
8
top_outsideCutPath
10
345.75
20
156
11
335.25
21
156
0
LINE
8
top_outsideCutPath
10
335.25
20
156
11
335.25
21
159
0
LINE
8
top_outsideCutPath
10
335.25
20
159
11
324.75
21
159
0
LINE
8
top_outsideCutPath
10
324.75
20
159
11
324.75
21
156
0
LINE
8
top_outsideCutPath
10
324.75
20
156
11
314.25
21
156
0
LINE
8
top_outsideCutPath
10
314.25
20
156
11
314.25
21
159
0
LINE
8
top_outsideCutPath
10
314.25
20
159
11
303.75
21
159
0
LINE
8
top_outsideCutPath
10
303.75
20
159
11
303.75
21
156
0
LINE
8
top_outsideCutPath
10
303.75
20
156
11
293.25
21
156
0
LINE
8
top_outsideCutPath
10
293.25
20
156
11
291
21
156
0
LINE
8
back_outsideCutPath
10
0
20
218
11
0
21
201.75
0
LINE
8
back_outsideCutPath
10
0
20
201.75
11
3
21
201.75
0
LINE
8
back_outsideCutPath
10
3
20
201.75
11
3
21
191.25
0
LINE
8
back_outsideCutPath
10
3
20
191.25
11
0
21
191.25
0
LINE
8
back_outsideCutPath
10
0
20
191.25
11
0
21
180.75
0
LINE
8
back_outsideCutPath
10
0
20
180.75
11
3
21
180.75
0
LINE
8
back_outsideCutPath
10
3
20
180.75
11
3
21
170.25
0
LINE
8
back_outsideCutPath
10
3
20
170.25
11
0
21
170.25
0
LINE
8
back_outsideCutPath
10
0
20
170.25
11
0
21
159.75
0
LINE
8
back_outsideCutPath
10
0
20
159.75
11
3
21
159.75
0
LINE
8
back_outsideCutPath
10
3
20
159.75
11
3
21
149.25
0
LINE
8
back_outsideCutPath
10
3
20
149.25
11
0
21
149.25
0
LINE
8
back_outsideCutPath
10
0
20
149.25
11
0
21
138.75
0
LINE
8
back_outsideCutPath
10
0
20
138.75
11
3
21
138.75
0
LINE
8
back_outsideCutPath
10
3
20
138.75
11
3
21
128.25
0
LINE
8
back_outsideCutPath
10
3
20
128.25
11
0
21
128.25
0
LINE
8
back_outsideCutPath
10
0
20
128.25
11
0
21
117.75
0
LINE
8
back_outsideCutPath
10
0
20
117.75
11
0
21
112
0
LINE
8
back_outsideCutPath
10
0
20
112
11
15.75
21
112
0
LINE
8
back_outsideCutPath
10
15.75
20
112
11
15.75
21
115
0
LINE
8
back_outsideCutPath
10
15.75
20
115
11
26.25
21
115
0
LINE
8
back_outsideCutPath
10
26.25
20
115
11
26.25
21
112
0
LINE
8
back_outsideCutPath
10
26.25
20
112
11
36.75
21
112
0
LINE
8
back_outsideCutPath
10
36.75
20
112
11
36.75
21
115
0
LINE
8
back_outsideCutPath
10
36.75
20
115
11
47.25
21
115
0
LINE
8
back_outsideCutPath
10
47.25
20
115
11
47.25
21
112
0
LINE
8
back_outsideCutPath
10
47.25
20
112
11
57.75
21
112
0
LINE
8
back_outsideCutPath
10
57.75
20
112
11
57.75
21
115
0
LINE
8
back_outsideCutPath
10
57.75
20
115
11
68.25
21
115
0
LINE
8
back_outsideCutPath
10
68.25
20
115
11
68.25
21
112
0
LINE
8
back_outsideCutPath
10
68.25
20
112
11
78.75
21
112
0
LINE
8
back_outsideCutPath
10
78.75
20
112
11
78.75
21
115
0
LINE
8
back_outsideCutPath
10
78.75
20
115
11
89.25
21
115
0
LINE
8
back_outsideCutPath
10
89.25
20
115
11
89.25
21
112
0
LINE
8
back_outsideCutPath
10
89.25
20
112
11
99.75
21
112
0
LINE
8
back_outsideCutPath
10
99.75
20
112
11
99.75
21
115
0
LINE
8
back_outsideCutPath
10
99.75
20
115
11
110.25
21
115
0
LINE
8
back_outsideCutPath
10
110.25
20
115
11
110.25
21
112
0
LINE
8
back_outsideCutPath
10
110.25
20
112
11
120.75
21
112
0
LINE
8
back_outsideCutPath
10
120.75
20
112
11
126
21
112
0
LINE
8
back_outsideCutPath
10
126
20
112
11
126
21
128.25
0
LINE
8
back_outsideCutPath
10
126
20
128.25
11
123
21
128.25
0
LINE
8
back_outsideCutPath
10
123
20
128.25
11
123
21
138.75
0
LINE
8
back_outsideCutPath
10
123
20
138.75
11
126
21
138.75
0
LINE
8
back_outsideCutPath
10
126
20
138.75
11
126
21
149.25
0
LINE
8
back_outsideCutPath
10
126
20
149.25
11
123
21
149.25
0
LINE
8
back_outsideCutPath
10
123
20
149.25
11
123
21
159.75
0
LINE
8
back_outsideCutPath
10
123
20
159.75
11
126
21
159.75
0
LINE
8
back_outsideCutPath
10
126
20
159.75
11
126
21
170.25
0
LINE
8
back_outsideCutPath
10
126
20
170.25
11
123
21
170.25
0
LINE
8
back_outsideCutPath
10
123
20
170.25
11
123
21
180.75
0
LINE
8
back_outsideCutPath
10
123
20
180.75
11
126
21
180.75
0
LINE
8
back_outsideCutPath
10
126
20
180.75
11
126
21
191.25
0
LINE
8
back_outsideCutPath
10
126
20
191.25
11
123
21
191.25
0
LINE
8
back_outsideCutPath
10
123
20
191.25
11
123
21
201.75
0
LINE
8
back_outsideCutPath
10
123
20
201.75
11
126
21
201.75
0
LINE
8
back_outsideCutPath
10
126
20
201.75
11
126
21
212.25
0
LINE
8
back_outsideCutPath
10
126
20
212.25
11
126
21
218
0
LINE
8
back_outsideCutPath
10
126
20
218
11
110.25
21
218
0
LINE
8
back_outsideCutPath
10
110.25
20
218
11
110.25
21
215
0
LINE
8
back_outsideCutPath
10
110.25
20
215
11
99.75
21
215
0
LINE
8
back_outsideCutPath
10
99.75
20
215
11
99.75
21
218
0
LINE
8
back_outsideCutPath
10
99.75
20
218
11
89.25
21
218
0
LINE
8
back_outsideCutPath
10
89.25
20
218
11
89.25
21
215
0
LINE
8
back_outsideCutPath
10
89.25
20
215
11
78.75
21
215
0
LINE
8
back_outsideCutPath
10
78.75
20
215
11
78.75
21
218
0
LINE
8
back_outsideCutPath
10
78.75
20
218
11
68.25
21
218
0
LINE
8
back_outsideCutPath
10
68.25
20
218
11
68.25
21
215
0
LINE
8
back_outsideCutPath
10
68.25
20
215
11
57.75
21
215
0
LINE
8
back_outsideCutPath
10
57.75
20
215
11
57.75
21
218
0
LINE
8
back_outsideCutPath
10
57.75
20
218
11
47.25
21
218
0
LINE
8
back_outsideCutPath
10
47.25
20
218
11
47.25
21
215
0
LINE
8
back_outsideCutPath
10
47.25
20
215
11
36.75
21
215
0
LINE
8
back_outsideCutPath
10
36.75
20
215
11
36.75
21
218
0
LINE
8
back_outsideCutPath
10
36.75
20
218
11
26.25
21
218
0
LINE
8
back_outsideCutPath
10
26.25
20
218
11
26.25
21
215
0
LINE
8
back_outsideCutPath
10
26.25
20
215
11
15.75
21
215
0
LINE
8
back_outsideCutPath
10
15.75
20
215
11
15.75
21
218
0
LINE
8
back_outsideCutPath
10
15.75
20
218
11
5.25
21
218
0
LINE
8
back_outsideCutPath
10
5.25
20
218
11
0
21
218
0
LINE
8
right_outsideCutPath
10
132
20
218
11
132
21
201.75
0
LINE
8
right_outsideCutPath
10
132
20
201.75
11
129
21
201.75
0
LINE
8
right_outsideCutPath
10
129
20
201.75
11
129
21
191.25
0
LINE
8
right_outsideCutPath
10
129
20
191.25
11
132
21
191.25
0
LINE
8
right_outsideCutPath
10
132
20
191.25
11
132
21
180.75
0
LINE
8
right_outsideCutPath
10
132
20
180.75
11
129
21
180.75
0
LINE
8
right_outsideCutPath
10
129
20
180.75
11
129
21
170.25
0
LINE
8
right_outsideCutPath
10
129
20
170.25
11
132
21
170.25
0
LINE
8
right_outsideCutPath
10
132
20
170.25
11
132
21
159.75
0
LINE
8
right_outsideCutPath
10
132
20
159.75
11
129
21
159.75
0
LINE
8
right_outsideCutPath
10
129
20
159.75
11
129
21
149.25
0
LINE
8
right_outsideCutPath
10
129
20
149.25
11
132
21
149.25
0
LINE
8
right_outsideCutPath
10
132
20
149.25
11
132
21
138.75
0
LINE
8
right_outsideCutPath
10
132
20
138.75
11
129
21
138.75
0
LINE
8
right_outsideCutPath
10
129
20
138.75
11
129
21
128.25
0
LINE
8
right_outsideCutPath
10
129
20
128.25
11
132
21
128.25
0
LINE
8
right_outsideCutPath
10
132
20
128.25
11
132
21
117.75
0
LINE
8
right_outsideCutPath
10
132
20
117.75
11
132
21
112
0
LINE
8
right_outsideCutPath
10
132
20
112
11
138.75
21
112
0
LINE
8
right_outsideCutPath
10
138.75
20
112
11
138.75
21
115
0
LINE
8
right_outsideCutPath
10
138.75
20
115
11
149.25
21
115
0
LINE
8
right_outsideCutPath
10
149.25
20
115
11
149.25
21
112
0
LINE
8
right_outsideCutPath
10
149.25
20
112
11
159.75
21
112
0
LINE
8
right_outsideCutPath
10
159.75
20
112
11
159.75
21
115
0
LINE
8
right_outsideCutPath
10
159.75
20
115
11
170.25
21
115
0
LINE
8
right_outsideCutPath
10
170.25
20
115
11
170.25
21
112
0
LINE
8
right_outsideCutPath
10
170.25
20
112
11
180.75
21
112
0
LINE
8
right_outsideCutPath
10
180.75
20
112
11
180.75
21
115
0
LINE
8
right_outsideCutPath
10
180.75
20
115
11
191.25
21
115
0
LINE
8
right_outsideCutPath
10
191.25
20
115
11
191.25
21
112
0
LINE
8
right_outsideCutPath
10
191.25
20
112
11
201.75
21
112
0
LINE
8
right_outsideCutPath
10
201.75
20
112
11
201.75
21
115
0
LINE
8
right_outsideCutPath
10
201.75
20
115
11
212.25
21
115
0
LINE
8
right_outsideCutPath
10
212.25
20
115
11
212.25
21
112
0
LINE
8
right_outsideCutPath
10
212.25
20
112
11
222.75
21
112
0
LINE
8
right_outsideCutPath
10
222.75
20
112
11
222.75
21
115
0
LINE
8
right_outsideCutPath
10
222.75
20
115
11
233.25
21
115
0
LINE
8
right_outsideCutPath
10
233.25
20
115
11
233.25
21
112
0
LINE
8
right_outsideCutPath
10
233.25
20
112
11
243.75
21
112
0
LINE
8
right_outsideCutPath
10
243.75
20
112
11
243.75
21
115
0
LINE
8
right_outsideCutPath
10
243.75
20
115
11
254.25
21
115
0
LINE
8
right_outsideCutPath
10
254.25
20
115
11
254.25
21
112
0
LINE
8
right_outsideCutPath
10
254.25
20
112
11
264.75
21
112
0
LINE
8
right_outsideCutPath
10
264.75
20
112
11
264.75
21
115
0
LINE
8
right_outsideCutPath
10
264.75
20
115
11
275.25
21
115
0
LINE
8
right_outsideCutPath
10
275.25
20
115
11
275.25
21
112
0
LINE
8
right_outsideCutPath
10
275.25
20
112
11
282
21
112
0
LINE
8
right_outsideCutPath
10
282
20
112
11
282
21
128.25
0
LINE
8
right_outsideCutPath
10
282
20
128.25
11
285
21
128.25
0
LINE
8
right_outsideCutPath
10
285
20
128.25
11
285
21
138.75
0
LINE
8
right_outsideCutPath
10
285
20
138.75
11
282
21
138.75
0
LINE
8
right_outsideCutPath
10
282
20
138.75
11
282
21
149.25
0
LINE
8
right_outsideCutPath
10
282
20
149.25
11
285
21
149.25
0
LINE
8
right_outsideCutPath
10
285
20
149.25
11
285
21
159.75
0
LINE
8
right_outsideCutPath
10
285
20
159.75
11
282
21
159.75
0
LINE
8
right_outsideCutPath
10
282
20
159.75
11
282
21
170.25
0
LINE
8
right_outsideCutPath
10
282
20
170.25
11
285
21
170.25
0
LINE
8
right_outsideCutPath
10
285
20
170.25
11
285
21
180.75
0
LINE
8
right_outsideCutPath
10
285
20
180.75
11
282
21
180.75
0
LINE
8
right_outsideCutPath
10
282
20
180.75
11
282
21
191.25
0
LINE
8
right_outsideCutPath
10
282
20
191.25
11
285
21
191.25
0
LINE
8
right_outsideCutPath
10
285
20
191.25
11
285
21
201.75
0
LINE
8
right_outsideCutPath
10
285
20
201.75
11
282
21
201.75
0
LINE
8
right_outsideCutPath
10
282
20
201.75
11
282
21
212.25
0
LINE
8
right_outsideCutPath
10
282
20
212.25
11
282
21
218
0
LINE
8
right_outsideCutPath
10
282
20
218
11
275.25
21
218
0
LINE
8
right_outsideCutPath
10
275.25
20
218
11
275.25
21
215
0
LINE
8
right_outsideCutPath
10
275.25
20
215
11
264.75
21
215
0
LINE
8
right_outsideCutPath
10
264.75
20
215
11
264.75
21
218
0
LINE
8
right_outsideCutPath
10
264.75
20
218
11
254.25
21
218
0
LINE
8
right_outsideCutPath
10
254.25
20
218
11
254.25
21
215
0
LINE
8
right_outsideCutPath
10
254.25
20
215
11
243.75
21
215
0
LINE
8
right_outsideCutPath
10
243.75
20
215
11
243.75
21
218
0
LINE
8
right_outsideCutPath
10
243.75
20
218
11
233.25
21
218
0
LINE
8
right_outsideCutPath
10
233.25
20
218
11
233.25
21
215
0
LINE
8
right_outsideCutPath
10
233.25
20
215
11
222.75
21
215
0
LINE
8
right_outsideCutPath
10
222.75
20
215
11
222.75
21
218
0
LINE
8
right_outsideCutPath
10
222.75
20
218
11
212.25
21
218
0
LINE
8
right_outsideCutPath
10
212.25
20
218
11
212.25
21
215
0
LINE
8
right_outsideCutPath
10
212.25
20
215
11
201.75
21
215
0
LINE
8
right_outsideCutPath
10
201.75
20
215
11
201.75
21
218
0
LINE
8
right_outsideCutPath
10
201.75
20
218
11
191.25
21
218
0
LINE
8
right_outsideCutPath
10
191.25
20
218
11
191.25
21
215
0
LINE
8
right_outsideCutPath
10
191.25
20
215
11
180.75
21
215
0
LINE
8
right_outsideCutPath
10
180.75
20
215
11
180.75
21
218
0
LINE
8
right_outsideCutPath
10
180.75
20
218
11
170.25
21
218
0
LINE
8
right_outsideCutPath
10
170.25
20
218
11
170.25
21
215
0
LINE
8
right_outsideCutPath
10
170.25
20
215
11
159.75
21
215
0
LINE
8
right_outsideCutPath
10
159.75
20
215
11
159.75
21
218
0
LINE
8
right_outsideCutPath
10
159.75
20
218
11
149.25
21
218
0
LINE
8
right_outsideCutPath
10
149.25
20
218
11
149.25
21
215
0
LINE
8
right_outsideCutPath
10
149.25
20
215
11
138.75
21
215
0
LINE
8
right_outsideCutPath
10
138.75
20
215
11
138.75
21
218
0
LINE
8
right_outsideCutPath
10
138.75
20
218
11
132
21
218
0
LINE
8
bottom_outsideCutPath
10
291
20
315
11
291
21
308.25
0
LINE
8
bottom_outsideCutPath
10
291
20
308.25
11
288
21
308.25
0
LINE
8
bottom_outsideCutPath
10
288
20
308.25
11
288
21
297.75
0
LINE
8
bottom_outsideCutPath
10
288
20
297.75
11
291
21
297.75
0
LINE
8
bottom_outsideCutPath
10
291
20
297.75
11
291
21
287.25
0
LINE
8
bottom_outsideCutPath
10
291
20
287.25
11
288
21
287.25
0
LINE
8
bottom_outsideCutPath
10
288
20
287.25
11
288
21
276.75
0
LINE
8
bottom_outsideCutPath
10
288
20
276.75
11
291
21
276.75
0
LINE
8
bottom_outsideCutPath
10
291
20
276.75
11
291
21
266.25
0
LINE
8
bottom_outsideCutPath
10
291
20
266.25
11
288
21
266.25
0
LINE
8
bottom_outsideCutPath
10
288
20
266.25
11
288
21
255.75
0
LINE
8
bottom_outsideCutPath
10
288
20
255.75
11
291
21
255.75
0
LINE
8
bottom_outsideCutPath
10
291
20
255.75
11
291
21
245.25
0
LINE
8
bottom_outsideCutPath
10
291
20
245.25
11
288
21
245.25
0
LINE
8
bottom_outsideCutPath
10
288
20
245.25
11
288
21
234.75
0
LINE
8
bottom_outsideCutPath
10
288
20
234.75
11
291
21
234.75
0
LINE
8
bottom_outsideCutPath
10
291
20
234.75
11
291
21
224.25
0
LINE
8
bottom_outsideCutPath
10
291
20
224.25
11
288
21
224.25
0
LINE
8
bottom_outsideCutPath
10
288
20
224.25
11
288
21
213.75
0
LINE
8
bottom_outsideCutPath
10
288
20
213.75
11
291
21
213.75
0
LINE
8
bottom_outsideCutPath
10
291
20
213.75
11
291
21
203.25
0
LINE
8
bottom_outsideCutPath
10
291
20
203.25
11
288
21
203.25
0
LINE
8
bottom_outsideCutPath
10
288
20
203.25
11
288
21
192.75
0
LINE
8
bottom_outsideCutPath
10
288
20
192.75
11
291
21
192.75
0
LINE
8
bottom_outsideCutPath
10
291
20
192.75
11
291
21
182.25
0
LINE
8
bottom_outsideCutPath
10
291
20
182.25
11
288
21
182.25
0
LINE
8
bottom_outsideCutPath
10
288
20
182.25
11
288
21
171.75
0
LINE
8
bottom_outsideCutPath
10
288
20
171.75
11
291
21
171.75
0
LINE
8
bottom_outsideCutPath
10
291
20
171.75
11
291
21
165
0
LINE
8
bottom_outsideCutPath
10
291
20
165
11
303.75
21
165
0
LINE
8
bottom_outsideCutPath
10
303.75
20
165
11
303.75
21
162
0
LINE
8
bottom_outsideCutPath
10
303.75
20
162
11
314.25
21
162
0
LINE
8
bottom_outsideCutPath
10
314.25
20
162
11
314.25
21
165
0
LINE
8
bottom_outsideCutPath
10
314.25
20
165
11
324.75
21
165
0
LINE
8
bottom_outsideCutPath
10
324.75
20
165
11
324.75
21
162
0
LINE
8
bottom_outsideCutPath
10
324.75
20
162
11
335.25
21
162
0
LINE
8
bottom_outsideCutPath
10
335.25
20
162
11
335.25
21
165
0
LINE
8
bottom_outsideCutPath
10
335.25
20
165
11
345.75
21
165
0
LINE
8
bottom_outsideCutPath
10
345.75
20
165
11
345.75
21
162
0
LINE
8
bottom_outsideCutPath
10
345.75
20
162
11
356.25
21
162
0
LINE
8
bottom_outsideCutPath
10
356.25
20
162
11
356.25
21
165
0
LINE
8
bottom_outsideCutPath
10
356.25
20
165
11
366.75
21
165
0
LINE
8
bottom_outsideCutPath
10
366.75
20
165
11
366.75
21
162
0
LINE
8
bottom_outsideCutPath
10
366.75
20
162
11
377.25
21
162
0
LINE
8
bottom_outsideCutPath
10
377.25
20
162
11
377.25
21
165
0
LINE
8
bottom_outsideCutPath
10
377.25
20
165
11
387.75
21
165
0
LINE
8
bottom_outsideCutPath
10
387.75
20
165
11
387.75
21
162
0
LINE
8
bottom_outsideCutPath
10
387.75
20
162
11
398.25
21
162
0
LINE
8
bottom_outsideCutPath
10
398.25
20
162
11
398.25
21
165
0
LINE
8
bottom_outsideCutPath
10
398.25
20
165
11
408.75
21
165
0
LINE
8
bottom_outsideCutPath
10
408.75
20
165
11
411
21
165
0
LINE
8
bottom_outsideCutPath
10
411
20
165
11
411
21
171.75
0
LINE
8
bottom_outsideCutPath
10
411
20
171.75
11
414
21
171.75
0
LINE
8
bottom_outsideCutPath
10
414
20
171.75
11
414
21
182.25
0
LINE
8
bottom_outsideCutPath
10
414
20
182.25
11
411
21
182.25
0
LINE
8
bottom_outsideCutPath
10
411
20
182.25
11
411
21
192.75
0
LINE
8
bottom_outsideCutPath
10
411
20
192.75
11
414
21
192.75
0
LINE
8
bottom_outsideCutPath
10
414
20
192.75
11
414
21
203.25
0
LINE
8
bottom_outsideCutPath
10
414
20
203.25
11
411
21
203.25
0
LINE
8
bottom_outsideCutPath
10
411
20
203.25
11
411
21
213.75
0
LINE
8
bottom_outsideCutPath
10
411
20
213.75
11
414
21
213.75
0
LINE
8
bottom_outsideCutPath
10
414
20
213.75
11
414
21
224.25
0
LINE
8
bottom_outsideCutPath
10
414
20
224.25
11
411
21
224.25
0
LINE
8
bottom_outsideCutPath
10
411
20
224.25
11
411
21
234.75
0
LINE
8
bottom_outsideCutPath
10
411
20
234.75
11
414
21
234.75
0
LINE
8
bottom_outsideCutPath
10
414
20
234.75
11
414
21
245.25
0
LINE
8
bottom_outsideCutPath
10
414
20
245.25
11
411
21
245.25
0
LINE
8
bottom_outsideCutPath
10
411
20
245.25
11
411
21
255.75
0
LINE
8
bottom_outsideCutPath
10
411
20
255.75
11
414
21
255.75
0
LINE
8
bottom_outsideCutPath
10
414
20
255.75
11
414
21
266.25
0
LINE
8
bottom_outsideCutPath
10
414
20
266.25
11
411
21
266.25
0
LINE
8
bottom_outsideCutPath
10
411
20
266.25
11
411
21
276.75
0
LINE
8
bottom_outsideCutPath
10
411
20
276.75
11
414
21
276.75
0
LINE
8
bottom_outsideCutPath
10
414
20
276.75
11
414
21
287.25
0
LINE
8
bottom_outsideCutPath
10
414
20
287.25
11
411
21
287.25
0
LINE
8
bottom_outsideCutPath
10
411
20
287.25
11
411
21
297.75
0
LINE
8
bottom_outsideCutPath
10
411
20
297.75
11
414
21
297.75
0
LINE
8
bottom_outsideCutPath
10
414
20
297.75
11
414
21
308.25
0
LINE
8
bottom_outsideCutPath
10
414
20
308.25
11
411
21
308.25
0
LINE
8
bottom_outsideCutPath
10
411
20
308.25
11
411
21
315
0
LINE
8
bottom_outsideCutPath
10
411
20
315
11
398.25
21
315
0
LINE
8
bottom_outsideCutPath
10
398.25
20
315
11
398.25
21
318
0
LINE
8
bottom_outsideCutPath
10
398.25
20
318
11
387.75
21
318
0
LINE
8
bottom_outsideCutPath
10
387.75
20
318
11
387.75
21
315
0
LINE
8
bottom_outsideCutPath
10
387.75
20
315
11
377.25
21
315
0
LINE
8
bottom_outsideCutPath
10
377.25
20
315
11
377.25
21
318
0
LINE
8
bottom_outsideCutPath
10
377.25
20
318
11
366.75
21
318
0
LINE
8
bottom_outsideCutPath
10
366.75
20
318
11
366.75
21
315
0
LINE
8
bottom_outsideCutPath
10
366.75
20
315
11
356.25
21
315
0
LINE
8
bottom_outsideCutPath
10
356.25
20
315
11
356.25
21
318
0
LINE
8
bottom_outsideCutPath
10
356.25
20
318
11
345.75
21
318
0
LINE
8
bottom_outsideCutPath
10
345.75
20
318
11
345.75
21
315
0
LINE
8
bottom_outsideCutPath
10
345.75
20
315
11
335.25
21
315
0
LINE
8
bottom_outsideCutPath
10
335.25
20
315
11
335.25
21
318
0
LINE
8
bottom_outsideCutPath
10
335.25
20
318
11
324.75
21
318
0
LINE
8
bottom_outsideCutPath
10
324.75
20
318
11
324.75
21
315
0
LINE
8
bottom_outsideCutPath
10
324.75
20
315
11
314.25
21
315
0
LINE
8
bottom_outsideCutPath
10
314.25
20
315
11
314.25
21
318
0
LINE
8
bottom_outsideCutPath
10
314.25
20
318
11
303.75
21
318
0
LINE
8
bottom_outsideCutPath
10
303.75
20
318
11
303.75
21
315
0
LINE
8
bottom_outsideCutPath
10
303.75
20
315
11
293.25
21
315
0
LINE
8
bottom_outsideCutPath
10
293.25
20
315
11
291
21
315
0
ENDSEC
0
EOF